<svg width="159" height="158" viewBox="0 0 159 158" fill="none" xmlns="http://www.w3.org/2000/svg">
<g filter="url(#filter0_d_156_20)">
<path d="M4 18C4 8.05888 12.0589 0 22 0H136C145.941 0 154 8.05888 154 18V132C154 141.941 145.941 150 136 150H22C12.0589 150 4 141.941 4 132V18Z" fill="#1E2225"/>
<path d="M28.1282 150V139.048L71.6793 77.9403H28.043V62.7273H94.8612V73.679L51.2674 134.787H94.9464V150H28.1282Z" fill="white"/>
<path d="M83.2614 77.9403V62.7273H154.938V77.9403H128.219V150H109.98V77.9403H83.2614Z" fill="white"/>
</g>
<defs>
<filter id="filter0_d_156_20" x="0" y="0" width="158.938" height="158" filterUnits="userSpaceOnUse" color-interpolation-filters="sRGB">
<feFlood flood-opacity="0" result="BackgroundImageFix"/>
<feColorMatrix in="SourceAlpha" type="matrix" values="0 0 0 0 0 0 0 0 0 0 0 0 0 0 0 0 0 0 127 0" result="hardAlpha"/>
<feOffset dy="4"/>
<feGaussianBlur stdDeviation="2"/>
<feComposite in2="hardAlpha" operator="out"/>
<feColorMatrix type="matrix" values="0 0 0 0 0 0 0 0 0 0 0 0 0 0 0 0 0 0 0.25 0"/>
<feBlend mode="normal" in2="BackgroundImageFix" result="effect1_dropShadow_156_20"/>
<feBlend mode="normal" in="SourceGraphic" in2="effect1_dropShadow_156_20" result="shape"/>
</filter>
</defs>
</svg>
