<svg width="48" height="48" viewBox="0 0 48 48" fill="none" xmlns="http://www.w3.org/2000/svg">
<g filter="url(#filter0_d_156_20)">
<path d="M4 4.8C4 2.14903 6.13569 0 8.77019 0H38.9814C41.6159 0 43.7516 2.14903 43.7516 4.8V35.2C43.7516 37.851 41.6159 40 38.9814 40H8.77019C6.13569 40 4 37.851 4 35.2V4.8Z" fill="#1E2225"/>
<path d="M10.3942 40V37.0795L21.9357 20.7841H10.3716V16.7273H28.0791V19.6477L16.5264 35.9432H28.1017V40H10.3942Z" fill="white"/>
<path d="M25.0051 20.7841V16.7273H44V20.7841H36.9193V40H32.0858V20.7841H25.0051Z" fill="white"/>
</g>
<defs>
<filter id="filter0_d_156_20" x="0" y="0" width="48" height="48" filterUnits="userSpaceOnUse" color-interpolation-filters="sRGB">
<feFlood flood-opacity="0" result="BackgroundImageFix"/>
<feColorMatrix in="SourceAlpha" type="matrix" values="0 0 0 0 0 0 0 0 0 0 0 0 0 0 0 0 0 0 127 0" result="hardAlpha"/>
<feOffset dy="4"/>
<feGaussianBlur stdDeviation="2"/>
<feComposite in2="hardAlpha" operator="out"/>
<feColorMatrix type="matrix" values="0 0 0 0 0 0 0 0 0 0 0 0 0 0 0 0 0 0 0.25 0"/>
<feBlend mode="normal" in2="BackgroundImageFix" result="effect1_dropShadow_156_20"/>
<feBlend mode="normal" in="SourceGraphic" in2="effect1_dropShadow_156_20" result="shape"/>
</filter>
</defs>
</svg>
